<svg xmlns="http://www.w3.org/2000/svg" viewBox="0 0 562 569" fill="#FFFFFF">
<path d="M519.0,0.0 L529.0,18.0 L534.0,37.0 L533.0,52.0 L527.0,67.0 L520.0,77.0 L508.0,89.0 L495.0,99.0 L478.0,109.0 L456.0,119.0 L409.0,135.0 L348.0,148.0 L315.0,152.0 L286.0,153.0 L287.0,568.0 L425.0,462.0 L425.0,330.0 L382.0,355.0 L382.0,439.0 L380.0,442.0 L332.0,479.0 L330.0,478.0 L330.0,374.0 L470.0,291.0 L470.0,176.0 L468.0,175.0 L426.0,190.0 L426.0,266.0 L423.0,269.0 L331.0,322.0 L330.0,199.0 L332.0,197.0 L361.0,194.0 L409.0,184.0 L462.0,167.0 L490.0,154.0 L507.0,144.0 L526.0,130.0 L543.0,113.0 L552.0,100.0 L560.0,81.0 L560.0,54.0 L557.0,44.0 L545.0,24.0 L526.0,5.0 Z"/><path d="M43.0,0.0 L31.0,9.0 L15.0,26.0 L5.0,43.0 L1.0,55.0 L0.0,72.0 L2.0,83.0 L10.0,101.0 L21.0,116.0 L38.0,132.0 L56.0,145.0 L75.0,156.0 L97.0,166.0 L125.0,176.0 L165.0,187.0 L207.0,195.0 L230.0,197.0 L232.0,199.0 L231.0,322.0 L135.0,266.0 L135.0,190.0 L93.0,175.0 L92.0,292.0 L232.0,374.0 L232.0,478.0 L230.0,479.0 L180.0,440.0 L180.0,355.0 L137.0,330.0 L136.0,461.0 L275.0,568.0 L275.0,153.0 L247.0,152.0 L220.0,149.0 L164.0,138.0 L110.0,121.0 L78.0,106.0 L65.0,98.0 L51.0,87.0 L39.0,74.0 L29.0,54.0 L28.0,33.0 L30.0,25.0 L37.0,9.0 Z"/>
</svg>